<?xml version="1.0" encoding="utf-8"?>
<!-- Generator: Adobe Illustrator 29.4.0, SVG Export Plug-In . SVG Version: 9.03 Build 0)  -->
<svg version="1.0" id="Layer_1" xmlns="http://www.w3.org/2000/svg" xmlns:xlink="http://www.w3.org/1999/xlink" x="0px" y="0px"
	 viewBox="0 0 24 24" style="enable-background:new 0 0 24 24;" xml:space="preserve">
<style type="text/css">
	.st0{fill:#FFBF00;}
</style>
<g id="cwf0gG_00000011021452961917805780000017995383719943701928_">
	<g>
		<path class="st0" d="M13.1,7.3c0.4-2.2,1.9-4.2,3.9-5.1c1.2-0.5,2.1-0.6,3.4-0.3c0.3,0.1,1.8,0.5,1.9,0.9c0.3,0.9-0.9,0.6-1.4,0.6
			c-2.7,0-5,2.4-5,5.1c0,0.5,0.5,1.1,0.8,1.5c1-1.4,3.2-0.7,4.7-0.8c0.7,0.4-0.1,1.5-0.5,1.9c-1,1.1-2.4,1-3.8,1
			c-0.1,1-0.3,2.1-1.4,2.5c-0.5,1.7-0.9,3.5-1.4,5.1c-0.3,1-0.8,1.7-1.6,2.4c-0.6,0.5-0.7,0.6-1.3,0.1c-0.8-0.7-1.3-1.4-1.7-2.3
			c-0.6-1.7-0.9-3.6-1.5-5.3c-0.9-0.3-1.1-1-1.3-1.9c-0.1-0.3,0.1-0.6-0.3-0.6c-1.4-0.2-2.3,0.4-3.6-0.9c-0.3-0.4-1.3-1.8-0.4-2
			C3.2,8.9,5.1,9,5.7,9c0.6,0.1,1.2,0.4,1.6,0.9C7.4,9.5,7.9,9.1,8,8.7c0.2-0.8-0.3-2.2-0.7-2.9C6.2,3.9,4.2,3,2,3.3
			C1.7,3.2,1.6,2.9,1.7,2.6C1.9,2.3,4,1.7,4.4,1.6c3.1-0.3,5.9,2.7,6.5,5.6L13.1,7.3z"/>
	</g>
</g>
</svg>
